<svg xmlns="http://www.w3.org/2000/svg" width="24" height="24"><defs><clipPath id="a"><path fill="none" stroke="#fff" d="M-6.125-6.118h24v24h-24z" data-name="사각형 15443"/></clipPath></defs><g clip-path="url(#a)" transform="translate(6.125 6.118)"><g stroke="#6a5acd" data-name="그룹 669" transform="translate(-4.106 -3.702)"><path fill="none" stroke-linejoin="round" d="M11.279 4.184A3.788 3.788 0 1 1 7.491.396a3.788 3.788 0 0 1 3.788 3.788Z" data-name="패스 426"/><path fill="none" d="M14.589 16.478c0 .308-.015.616-.037.924H.426c-.015-.308-.03-.616-.03-.924 0-.127 0-.248.007-.375a11 11 0 0 1 2.816-7.322 1.347 1.347 0 0 1 .106-.112.412.412 0 0 0 .071.055 6.048 6.048 0 0 0 3.935 1.585 1.227 1.227 0 0 0 .166.007 1.215 1.215 0 0 0 .165-.007 6.064 6.064 0 0 0 3.934-1.585.412.412 0 0 0 .067-.052c.037.037.075.075.106.112a11 11 0 0 1 2.816 7.322c.007.127.007.248.007.375" data-name="패스 427"/><circle cx="4.975" cy="4.975" r="4.975" fill="#e6e2ff" stroke-linejoin="round" data-name="타원 76" transform="translate(9.614 8.822)"/><path fill="none" stroke-linejoin="round" d="m12.692 13.393 1.9 2.506 1.778-4.193" data-name="패스 430"/></g></g></svg>