<svg width="10" height="16" viewBox="0 0 10 16" fill="none" xmlns="http://www.w3.org/2000/svg">
<g clip-path="url(#clip0_701_2)">
<path d="M1.45996 16C1.08822 15.997 0.731227 15.8542 0.459961 15.6C0.324681 15.4772 0.216676 15.3275 0.1427 15.1604C0.0687248 14.9934 0.0303955 14.8127 0.0303955 14.63C0.0303955 14.4473 0.0687248 14.2666 0.1427 14.0996C0.216676 13.9325 0.324681 13.7828 0.459961 13.66L6.45996 7.99998L0.459961 2.34001C0.324681 2.21722 0.216676 2.06749 0.1427 1.90044C0.0687248 1.73339 0.0303955 1.55268 0.0303955 1.36998C0.0303955 1.18728 0.0687248 1.00664 0.1427 0.839584C0.216676 0.672533 0.324681 0.522801 0.459961 0.400009C0.744346 0.144907 1.11296 0.00382996 1.495 0.00382996C1.87703 0.00382996 2.24564 0.144907 2.53003 0.400009L9.59998 7.03001C9.73526 7.15281 9.84338 7.30254 9.91736 7.46959C9.99133 7.63664 10.0295 7.81729 10.0295 7.99998C10.0295 8.18268 9.99133 8.36339 9.91736 8.53044C9.84338 8.69749 9.73526 8.84722 9.59998 8.97002L2.53003 15.6C2.2572 15.8517 1.9012 15.9941 1.53003 16H1.45996Z" fill="#474749"/>
</g>
<defs>
<clipPath id="clip0_701_2">
<rect width="10" height="16" fill="white"/>
</clipPath>
</defs>
</svg>