<svg xmlns="http://www.w3.org/2000/svg" xmlns:xlink="http://www.w3.org/1999/xlink" width="24" height="24" viewBox="0 0 24 24">
  <defs>
    <clipPath id="clip-path">
      <rect id="사각형_105" data-name="사각형 105" width="24" height="24" fill="none" stroke="#707070" stroke-width="1.5"/>
    </clipPath>
  </defs>
  <g id="nav_resource" clip-path="url(#clip-path)">
    <g id="그룹_870" data-name="그룹 870" transform="translate(0.5 1.5)">
      <path id="패스_118" data-name="패스 118" d="M21.339,42.135v-.977H3V48.8h9.324" transform="translate(-3 -31.64)" fill="none" stroke="#454545" stroke-linecap="round" stroke-linejoin="round" stroke-width="1.5"/>
      <path id="패스_119" data-name="패스 119" d="M15.413,53.452a1.019,1.019,0,1,0-1.019,1.019,1.019,1.019,0,0,0,1.019-1.019" transform="translate(-10.732 -40.043)" fill="#283c82" stroke="#707070" stroke-width="1.5"/>
      <circle id="타원_21" data-name="타원 21" cx="1.019" cy="1.019" r="1.019" transform="translate(2.643 12.39)" fill="none" stroke="#454545" stroke-miterlimit="10" stroke-width="1.5"/>
      <rect id="사각형_104" data-name="사각형 104" width="18.34" height="7.722" transform="translate(0.201)" fill="none" stroke="#454545" stroke-linecap="round" stroke-linejoin="round" stroke-width="1.5"/>
      <path id="패스_120" data-name="패스 120" d="M15.413,15.294a1.019,1.019,0,1,0-1.019,1.019,1.019,1.019,0,0,0,1.019-1.019" transform="translate(-10.732 -11.604)" fill="#283c82" stroke="#707070" stroke-width="1.5"/>
      <circle id="타원_22" data-name="타원 22" cx="1.019" cy="1.019" r="1.019" transform="translate(2.643 2.671)" fill="none" stroke="#454545" stroke-miterlimit="10" stroke-width="1.5"/>
      <path id="패스_121" data-name="패스 121" d="M55.054,50.125a4.486,4.486,0,0,0-.134-1.074l1.367-1L55.213,46.2l-1.545.686a4.491,4.491,0,0,0-1.861-1.076l-.179-1.68H49.482l-.179,1.68a4.486,4.486,0,0,0-1.861,1.076L45.9,46.2l-1.073,1.859,1.367,1a4.357,4.357,0,0,0,0,2.148l-1.367,1L45.9,54.053l1.545-.686A4.491,4.491,0,0,0,49.3,54.443l.179,1.68h2.146l.179-1.68a4.491,4.491,0,0,0,1.861-1.076l1.545.686,1.073-1.859-1.367-1A4.486,4.486,0,0,0,55.054,50.125Zm-4.5,1.91a1.91,1.91,0,1,1,1.91-1.91A1.91,1.91,0,0,1,50.555,52.035Z" transform="translate(-34.171 -33.852)" fill="none" stroke="#454545" stroke-linecap="round" stroke-linejoin="round" stroke-width="1.5"/>
    </g>
  </g>
</svg>
