<svg xmlns="http://www.w3.org/2000/svg" xmlns:xlink="http://www.w3.org/1999/xlink" width="24" height="24" viewBox="0 0 24 24">
  <defs>
    <clipPath id="clip-path">
      <rect id="사각형_15709" data-name="사각형 15709" width="24" height="24" transform="translate(0 -1)" fill="#fff" stroke="#707070" stroke-width="1"/>
    </clipPath>
  </defs>
  <g id="nav_system" transform="translate(0 1)" clip-path="url(#clip-path)">
    <g id="설정">
      <g id="off">
        <g id="패스_40" data-name="패스 40" transform="translate(-1.5 -1.5)" fill="none" stroke-linecap="round" stroke-linejoin="round">
          <path d="M22.578,9.363H21.2a8.289,8.289,0,0,0-.559-1.2,8.389,8.389,0,0,0-.76-1.085l.689-1.194a2.922,2.922,0,1,0-5.06-2.922l-.686,1.188a8.227,8.227,0,0,0-2.643.006l-.69-1.193A2.921,2.921,0,1,0,6.43,5.883l.689,1.193A8.239,8.239,0,0,0,5.794,9.363H4.421a2.922,2.922,0,1,0,0,5.843H5.8a8.264,8.264,0,0,0,.559,1.2,8.3,8.3,0,0,0,.759,1.084l-.69,1.194a2.921,2.921,0,1,0,5.06,2.922l.687-1.188a8.227,8.227,0,0,0,2.643-.006l.689,1.193a2.921,2.921,0,1,0,5.06-2.921l-.689-1.193a8.2,8.2,0,0,0,1.327-2.287h1.372a2.922,2.922,0,1,0,0-5.843Z" stroke="none"/>
          <path d="M 8.958297729492188 3.000162124633789 C 8.707866668701172 3.000162124633789 8.469457626342773 3.064462661743164 8.250356674194336 3.190891265869141 C 7.571287155151367 3.583202362060547 7.337648391723633 4.454662322998047 7.729637145996094 5.133691787719727 L 8.418247222900391 6.326921463012695 C 8.729387283325195 6.866062164306641 8.675207138061523 7.541351318359375 8.282077789306641 8.023992538452148 C 7.81298828125 8.599882125854492 7.447788238525391 9.228772163391113 7.196647644042969 9.893191337585449 C 6.976068496704102 10.47672176361084 6.417367935180664 10.86282157897949 5.793537139892578 10.86282157897949 L 4.421228408813477 10.86282157897949 C 3.637557983398438 10.86282157897949 2.999998092651367 11.50038146972656 2.999998092651367 12.2840518951416 C 2.999998092651367 13.06806182861328 3.637317657470703 13.70590209960938 4.421848297119141 13.70590209960938 L 5.801538467407227 13.70590209960938 C 6.424087524414062 13.70590209960938 6.981937408447266 14.09045219421387 7.203407287597656 14.67227172851562 C 7.348836898803711 15.05432224273682 7.498188018798828 15.37628173828125 7.659477233886719 15.6556921005249 C 7.822727203369141 15.93803215026855 8.026847839355469 16.22851181030273 8.28350830078125 16.54374313354492 C 8.676576614379883 17.02651214599609 8.730598449707031 17.70190238952637 8.41923713684082 18.24101257324219 L 7.729537963867188 19.43521118164062 C 7.337648391723633 20.11407089233398 7.571287155151367 20.98552131652832 8.250177383422852 21.37773132324219 C 8.469436645507812 21.50435256958008 8.707496643066406 21.56856155395508 8.957757949829102 21.56856155395508 C 9.465377807617188 21.56856155395508 9.937868118286133 21.296142578125 10.19160842895508 20.85625076293945 L 10.87837791442871 19.6685619354248 C 11.19032764434814 19.12908172607422 11.80335998535156 18.83866882324219 12.41840744018555 18.93900108337402 C 13.11785125732422 19.05309867858887 13.85338687896729 19.05110359191895 14.57973766326904 18.93326187133789 C 15.1948823928833 18.83343887329102 15.80766868591309 19.1243724822998 16.11916732788086 19.66413116455078 L 16.80768775939941 20.85719108581543 C 17.06108856201172 21.29615211486816 17.53395843505859 21.56883239746094 18.04175758361816 21.56883239746094 C 18.29207801818848 21.56883239746094 18.53023719787598 21.50457191467285 18.75072860717773 21.3771915435791 C 19.07924652099609 21.18777084350586 19.31425857543945 20.88166236877441 19.41245651245117 20.5152416229248 C 19.51076698303223 20.14841079711914 19.46025848388672 19.76531219482422 19.27001762390137 19.43616104125977 L 18.58078765869141 18.2429313659668 C 18.2690372467041 17.70321273803711 18.32353782653809 17.02695083618164 18.71767807006836 16.54411315917969 C 19.18716812133789 15.96899223327637 19.55233764648438 15.34054183959961 19.80306816101074 14.67624187469482 C 20.0234375 14.09234142303467 20.58233642578125 13.70590209960938 21.2064380645752 13.70590209960938 L 22.5781364440918 13.70590209960938 C 22.95826721191406 13.70590209960938 23.31552696228027 13.5580415725708 23.58408737182617 13.28955173492432 C 23.8524284362793 13.02129173278809 24.0001277923584 12.66462135314941 23.99997711181641 12.28467178344727 C 23.99997711181641 11.50066184997559 23.36214828491211 10.86282157897949 22.5781364440918 10.86282157897949 L 21.19843673706055 10.86282157897949 C 20.57560729980469 10.86282157897949 20.017578125 10.47793197631836 19.79629707336426 9.89574146270752 C 19.65256118774414 9.517560958862305 19.50357818603516 9.196141242980957 19.34085083007812 8.913189888000488 C 19.17498779296875 8.627827644348145 18.9707145690918 8.337245941162109 18.71645736694336 8.024961471557617 C 18.32353782653809 7.542362213134766 18.26941680908203 6.867252349853516 18.58045768737793 6.328222274780273 L 19.27007675170898 5.133081436157227 C 19.46014785766602 4.804080963134766 19.5107479095459 4.42091178894043 19.41255760192871 4.05415153503418 C 19.31438827514648 3.687501907348633 19.07919692993164 3.381061553955078 18.74953842163086 3.190841674804688 C 18.53056716918945 3.0643310546875 18.29265785217285 3.000171661376953 18.04232788085938 3.000162124633789 C 17.53426742553711 3.000162124633789 17.06108856201172 3.27290153503418 16.8077278137207 3.711462020874023 L 16.12218856811523 4.899150848388672 C 15.81047630310059 5.439193725585938 15.19715976715088 5.730083465576172 14.58174800872803 5.629751205444336 C 13.88172435760498 5.51563835144043 13.14561462402344 5.517604827880859 12.42056751251221 5.635412216186523 C 11.80573558807373 5.73530387878418 11.19314765930176 5.444852828979492 10.88138771057129 4.90559196472168 L 10.19081687927246 3.711101531982422 C 9.937868118286133 3.272581100463867 9.465587615966797 3.000162124633789 8.958297729492188 3.000162124633789 M 8.958301544189453 1.500162124633789 C 9.967868804931641 1.500162124633789 10.94944381713867 2.024250030517578 11.49014759063721 2.961601257324219 L 12.17998790740967 4.154830932617188 C 13.06245899200439 4.011442184448242 13.954758644104 4.00775146484375 14.8230676651001 4.1492919921875 L 15.50860786437988 2.961601257324219 C 16.31598663330078 1.564062118530273 18.10367584228516 1.085292816162109 19.49997711181641 1.892061233520508 C 20.89813804626465 2.698831558227539 21.37628746032715 4.485912322998047 20.56890869140625 5.883441925048828 L 19.87967681884766 7.077901840209961 C 20.15474700927734 7.415752410888672 20.4132080078125 7.772672653198242 20.63967704772949 8.162822723388672 C 20.86428833007812 8.552982330322266 21.04336738586426 8.954821586608887 21.19843673706055 9.362821578979492 L 22.5781364440918 9.362821578979492 C 24.19228744506836 9.362821578979492 25.49997711181641 10.67113208770752 25.49997711181641 12.28467178344727 C 25.50059700012207 13.89821147918701 24.19228744506836 15.20590209960938 22.5781364440918 15.20590209960938 L 21.2064380645752 15.20590209960938 C 20.89567756652832 16.02928161621094 20.44582748413086 16.79913139343262 19.87967681884766 17.49267196655273 L 20.56890869140625 18.6859016418457 C 21.37628746032715 20.08282089233398 20.89813804626465 21.87051200866699 19.49997711181641 22.67666244506836 C 18.10244941711426 23.48405075073242 16.31536865234375 23.00466156005859 15.50860786437988 21.60712242126465 L 14.81998729705811 20.41389083862305 C 13.93629741668701 20.55728149414062 13.0446081161499 20.56097221374512 12.17691707611084 20.41943168640137 L 11.49014759063721 21.60712242126465 C 10.68398666381836 23.00466156005859 8.896913528442383 23.48343086242676 7.499998092651367 22.67666244506836 C 6.102457046508789 21.86928176879883 5.623687744140625 20.08282089233398 6.430458068847656 18.68528175354004 L 7.120307922363281 17.49082183837891 C 6.84522819519043 17.1529712677002 6.586147308349609 16.79605102539062 6.360918045043945 16.4065113067627 C 6.135686874389648 16.01636123657227 5.956607818603516 15.61328220367432 5.801538467407227 15.20590209960938 L 4.421848297119141 15.20590209960938 C 2.806039810180664 15.2049674987793 1.5 13.89821243286133 1.499998092651367 12.2840518951416 C 1.499998092651367 10.67113208770752 2.807687759399414 9.362821578979492 4.421228408813477 9.362821578979492 L 5.793537139892578 9.362821578979492 C 6.104307174682617 8.540672302246094 6.554147720336914 7.770212173461914 7.119068145751953 7.076671600341797 L 6.430458068847656 5.883441925048828 C 5.623687744140625 4.485912322998047 6.102457046508789 2.699451446533203 7.499998092651367 1.892061233520508 C 7.960386276245117 1.626405715942383 8.46265983581543 1.500162124633789 8.958301544189453 1.500162124633789 Z" stroke="none" fill="#121212"/>
        </g>
        <g id="패스_41" data-name="패스 41" transform="translate(-8.438 -7.678)" fill="none" stroke-linecap="round" stroke-linejoin="round">
          <path d="M23.329,16.793a3.338,3.338,0,1,1-4.56-1.222A3.339,3.339,0,0,1,23.329,16.793Z" stroke="none"/>
          <path d="M 20.43530654907227 16.62281227111816 C 20.11565589904785 16.62281227111816 19.79873657226562 16.70821189880371 19.5196361541748 16.86930274963379 C 18.64138603210449 17.37693214416504 18.33929634094238 18.50343322753906 18.84698677062988 19.38178253173828 C 19.17387580871582 19.94866180419922 19.78476524353027 20.30081176757812 20.44126510620117 20.30081176757812 C 20.76096534729004 20.30081176757812 21.07781600952148 20.21550178527832 21.35651588439941 20.05471229553223 C 22.23476600646973 19.54706192016602 22.53710556030273 18.42033195495605 22.03031539916992 17.5427417755127 C 21.70279693603516 16.97531318664551 21.09162521362305 16.62281227111816 20.43530654907227 16.62281227111816 M 20.43530464172363 15.1228141784668 C 21.58917045593262 15.1228141784668 22.71109008789062 15.72156143188477 23.32944679260254 16.79291343688965 C 24.25129508972168 18.38924217224121 23.7034969329834 20.43066215515137 22.1071662902832 21.35337257385254 C 20.51082611083984 22.27436447143555 18.46855545043945 21.728271484375 17.54755592346191 20.1310920715332 C 16.62485694885254 18.53475189208984 17.17265510559082 16.49333190917969 18.76898574829102 15.57063293457031 C 19.29481887817383 15.26713752746582 19.86897659301758 15.1228141784668 20.43530464172363 15.1228141784668 Z" stroke="none" fill="#121212"/>
        </g>
      </g>
    </g>
  </g>
</svg>
