<svg xmlns="http://www.w3.org/2000/svg" xmlns:xlink="http://www.w3.org/1999/xlink" width="88" height="88" viewBox="0 0 88 88">
  <defs>
    <clipPath id="clip-path">
      <rect id="사각형_15701" data-name="사각형 15701" width="88" height="88" transform="translate(0 32)" fill="#fff"/>
    </clipPath>
  </defs>
  <g id="donut" transform="translate(0 -32)" clip-path="url(#clip-path)">
    <path id="패스_615" data-name="패스 615" d="M14.889,61.55,5.55,70.889A43.789,43.789,0,0,0,35.875,84.448V71.263a30.558,30.558,0,0,1-20.986-9.691Z" transform="translate(6.646 35.385)" fill="#efefef"/>
    <path id="패스_616" data-name="패스 616" d="M20.778,70.55c-.483,0-.945-.044-1.428-.066V83.669c.483,0,.945.066,1.428.066A43.743,43.743,0,0,0,51.1,71.539L41.764,62.2A30.569,30.569,0,0,1,20.778,70.55Z" transform="translate(23.171 36.163)" fill="#efefef"/>
    <path id="패스_617" data-name="패스 617" d="M39.329,69.3H52.513A43.785,43.785,0,0,0,38.889,37.55L29.55,46.889A30.659,30.659,0,0,1,39.329,69.3Z" transform="translate(35.385 6.646)" fill="#7de57b"/>
    <path id="패스_618" data-name="패스 618" d="M52.513,52H39.329A30.622,30.622,0,0,1,29.55,74.414l9.339,9.339A43.785,43.785,0,0,0,52.513,52Z" transform="translate(35.385 23.949)" fill="#18b772"/>
    <path id="패스_619" data-name="패스 619" d="M13.185,52H0A43.743,43.743,0,0,0,12.2,82.325l9.339-9.339A30.569,30.569,0,0,1,13.185,52Z" transform="translate(0 23.949)" fill="#fe4d0e"/>
    <path id="패스_620" data-name="패스 620" d="M20.778,45.185a30.569,30.569,0,0,1,20.986,8.35L51.1,44.2A43.743,43.743,0,0,0,20.778,32c-.483,0-.945.066-1.428.066V45.251C19.834,45.229,20.3,45.185,20.778,45.185Z" transform="translate(23.171)" fill="#ebe96d"/>
    <path id="패스_621" data-name="패스 621" d="M35.875,45.215V32.03A43.654,43.654,0,0,0,5.55,45.588l9.339,9.339a30.6,30.6,0,0,1,20.986-9.691Z" transform="translate(6.646 0.036)" fill="#febb60"/>
    <path id="패스_622" data-name="패스 622" d="M21.535,47.539,12.2,38.2A43.743,43.743,0,0,0,0,68.525H13.185A30.569,30.569,0,0,1,21.535,47.539Z" transform="translate(0 7.424)" fill="#ffa120"/>
  </g>
</svg>
