<svg xmlns="http://www.w3.org/2000/svg" xmlns:xlink="http://www.w3.org/1999/xlink" width="18" height="18" viewBox="0 0 18 18">
  <defs>
    <clipPath id="clip-path">
      <rect id="사각형_15697" data-name="사각형 15697" width="18" height="18" transform="translate(-6.667 -4.834)" fill="none" stroke="#707070" stroke-width="1"/>
    </clipPath>
  </defs>
  <g id="header_arr" transform="translate(6.667 4.834)">
    <g id="마스크_그룹_52" data-name="마스크 그룹 52" clip-path="url(#clip-path)">
      <g id="그룹_906" data-name="그룹 906">
        <path id="선_26" data-name="선 26" d="M4.667,5.417a.748.748,0,0,1-.53-.22L-.53.53A.75.75,0,0,1-.53-.53.75.75,0,0,1,.53-.53L5.2,4.136a.75.75,0,0,1-.53,1.28Z" fill="#757575"/>
        <path id="선_27" data-name="선 27" d="M0,5.417A.748.748,0,0,1-.53,5.2a.75.75,0,0,1,0-1.061L4.136-.53A.75.75,0,0,1,5.2-.53.75.75,0,0,1,5.2.53L.53,5.2A.748.748,0,0,1,0,5.417Z" transform="translate(0 4.666)" fill="#757575"/>
      </g>
    </g>
  </g>
</svg>
