<svg xmlns="http://www.w3.org/2000/svg" width="24" height="24" viewBox="0 0 24 24">
  <g id="home" transform="translate(-0.5)">
    <g id="사각형_90" data-name="사각형 90" transform="translate(0.5)" fill="none" stroke="#757575" stroke-width="1" opacity="0">
      <rect width="24" height="24" stroke="none"/>
      <rect x="0.5" y="0.5" width="23" height="23" fill="none"/>
    </g>
    <g id="패스_42" data-name="패스 42" transform="translate(4 2.5)" fill="none" stroke-linecap="round">
      <path d="M15.5,16.606a1.188,1.188,0,0,1-1.185,1.185H2.685A1.189,1.189,0,0,1,1.5,16.606V7.346a2.618,2.618,0,0,1,.959-1.881L7.54,1.787a1.749,1.749,0,0,1,1.919,0L14.54,5.465A2.62,2.62,0,0,1,15.5,7.346v9.26Z" stroke="none"/>
      <path d="M 13.99996376037598 16.29063987731934 L 13.99996376037598 7.345890522003174 C 13.99853420257568 7.16994047164917 13.80114364624023 6.78355073928833 13.66079425811768 6.680140495300293 L 8.59553050994873 3.012733936309814 C 8.580490112304688 3.007795095443726 8.546319961547852 2.99975061416626 8.499983787536621 2.99975061416626 C 8.453651428222656 2.99975061416626 8.419482231140137 3.007794141769409 8.404439926147461 3.012732982635498 L 3.340193748474121 6.679390430450439 C 3.198473691940308 6.783760547637939 3.001353740692139 7.169950485229492 3.000003814697266 7.345790863037109 L 3.000003814697266 16.29063987731934 L 13.99996376037598 16.29063987731934 M 14.31493377685547 17.79063987731934 L 2.685033798217773 17.79063987731934 C 2.033713817596436 17.79063987731934 1.500003814697266 17.25777053833008 1.500003814697266 16.60560035705566 L 1.500003814697266 7.345790863037109 C 1.500003814697266 6.693610668182373 1.93169379234314 5.847940444946289 2.45949387550354 5.465160846710205 L 7.540273666381836 1.786520719528198 C 8.068083763122559 1.404160499572754 8.931882858276367 1.404160499572754 9.459693908691406 1.786520719528198 L 14.54047393798828 5.465160846710205 C 15.0678539276123 5.847940444946289 15.49996376037598 6.693610668182373 15.49996376037598 7.345790863037109 L 15.49996376037598 16.60560035705566 C 15.49996376037598 17.25777053833008 14.96668338775635 17.79063987731934 14.31493377685547 17.79063987731934 Z" stroke="none" fill="#757575"/>
    </g>
  </g>
</svg>
