<svg xmlns="http://www.w3.org/2000/svg" xmlns:xlink="http://www.w3.org/1999/xlink" width="24" height="24" viewBox="0 0 24 24">
  <defs>
    <clipPath id="clip-path">
      <rect id="mask" width="24" height="24" transform="translate(0 0)" fill="#b621ff" opacity="0.62"/>
    </clipPath>
  </defs>
  <g id="ico__accordion" data-name="ico_ accordion" transform="translate(0 0)" clip-path="url(#clip-path)">
    <path id="passs" d="M5,6,4.955,6A.5.5,0,0,1,4.5,5.455l.446-4.9L.045,1A.5.5,0,0,1-.5.545.5.5,0,0,1-.045,0l5.5-.5a.5.5,0,0,1,.4.144A.5.5,0,0,1,6,.045l-.5,5.5A.5.5,0,0,1,5,6Z" transform="translate(16.278 10.389) rotate(135)" fill="#121212"/>
  </g>
</svg>
