<svg xmlns="http://www.w3.org/2000/svg" xmlns:xlink="http://www.w3.org/1999/xlink" width="24" height="24" viewBox="0 0 24 24">
  <defs>
    <clipPath id="clip-path">
      <rect id="mask" width="24" height="24" transform="translate(-2.604 -3.424)" fill="#fff"/>
    </clipPath>
  </defs>
  <g id="ico_reset" transform="translate(2.604 3.424)" clip-path="url(#clip-path)">
    <path id="reset" d="M17.5,6.933a.76.76,0,1,0-1.264.844,8.032,8.032,0,0,1-6.679,12.49H9.545A8.031,8.031,0,0,1,9.551,4.2a9.435,9.435,0,0,1,2.351.321L9.88,6a.76.76,0,1,0,.9,1.227L14.19,4.738c.009-.007.013-.017.021-.023s.02-.01.029-.018a.7.7,0,0,0,.071-.092.767.767,0,0,0,.094-.122.7.7,0,0,0,.048-.134.773.773,0,0,0,.039-.142.846.846,0,0,0-.005-.143.766.766,0,0,0-.018-.144.714.714,0,0,0-.063-.136.756.756,0,0,0-.05-.109c-.007-.009-.017-.013-.025-.022s-.008-.019-.015-.028L11.388.261a.76.76,0,1,0-1.147,1L11.671,2.9a10.857,10.857,0,0,0-2.111-.215H9.551a9.551,9.551,0,0,0-.007,19.1h.008A9.552,9.552,0,0,0,17.5,6.933" transform="translate(-0.603 -2.424)" fill="#121212"/>
  </g>
</svg>
