<svg xmlns="http://www.w3.org/2000/svg" width="24" height="24"><defs><clipPath id="a"><path fill="#121212" d="M0 0h24v24H0z"/></clipPath></defs><g fill="#121212" clip-path="url(#a)"><path d="M12 0a12 12 0 1 0 12 12A12 12 0 0 0 12 0m0 20.825A8.825 8.825 0 1 1 20.824 12 8.824 8.824 0 0 1 12 20.825"/><path d="M11.786 3.975v.984a.286.286 0 0 0 .572 0v-.984a.286.286 0 0 0-.572 0M12.358 19.099a.286.286 0 0 0-.572 0v.984a.286.286 0 0 0 .572 0ZM20.126 11.743h-.984a.286.286 0 0 0 0 .572h.984a.286.286 0 0 0 0-.572M5.001 11.743h-.984a.286.286 0 1 0 0 .572h.984a.286.286 0 1 0 0-.572" opacity=".499"/><path d="M12.632 6.767a.572.572 0 0 0-1.143 0v5.589a.7.7 0 0 0 .635.635h4.446a.572.572 0 1 0 0-1.143h-3.938Z"/></g></svg>