<svg xmlns="http://www.w3.org/2000/svg" width="24" height="24"><defs><clipPath id="a"><path fill="none" stroke="#707070" d="M-.5-.676h24v24h-24z"/></clipPath></defs><g clip-path="url(#a)" transform="translate(.5 .676)"><path fill="none" stroke="#333" stroke-miterlimit="10" d="m19.477 8.801-.555-1.348A24.584 24.584 0 0 0 20.1 4.362l-1.71-1.706a23.305 23.305 0 0 0-3.035 1.241l-1.345-.556A24.481 24.481 0 0 0 12.657.324h-2.414A23.346 23.346 0 0 0 8.975 3.35l-1.343.555A24.717 24.717 0 0 0 4.54 2.724L2.833 4.437a23.416 23.416 0 0 0 1.241 3.035l-.555 1.345A25 25 0 0 0 .5 10.165v2.417a23.132 23.132 0 0 0 3.026 1.27l.555 1.343a24.907 24.907 0 0 0-1.181 3.09l1.71 1.71a23.653 23.653 0 0 0 3.033-1.244l1.347.558a24.293 24.293 0 0 0 1.354 3.015h2.414a23.19 23.19 0 0 0 1.268-3.026l1.348-.556a24.846 24.846 0 0 0 3.086 1.182l1.71-1.708a23.265 23.265 0 0 0-1.244-3.035l.554-1.346a24.684 24.684 0 0 0 3.02-1.354v-2.415a23.185 23.185 0 0 0-3.023-1.265Zm-4.449 2.523A3.527 3.527 0 1 1 11.5 7.801a3.532 3.532 0 0 1 3.528 3.523Z"/></g></svg>