<svg xmlns="http://www.w3.org/2000/svg" xmlns:xlink="http://www.w3.org/1999/xlink" width="24" height="24" viewBox="0 0 24 24">
  <defs>
    <clipPath id="clip-path">
      <rect id="사각형_15541" data-name="사각형 15541" width="24" height="24" transform="translate(-0.08 -0.5)" fill="none" stroke="#454545" stroke-width="1"/>
    </clipPath>
  </defs>
  <g id="nav_server" transform="translate(0.08 0.5)" clip-path="url(#clip-path)">
    <g id="그룹_795" data-name="그룹 795" transform="translate(1.695 3.275)">
      <line id="선_202" data-name="선 202" x2="0.003" y2="5.35" transform="translate(9.885 6.083)" fill="none" stroke="#454545" stroke-linecap="round" stroke-linejoin="round" stroke-width="1"/>
      <path id="패스_532" data-name="패스 532" d="M20.294,25.906a1.639,1.639,0,1,1-1.641-1.637A1.639,1.639,0,0,1,20.294,25.906Z" transform="translate(-8.792 -12.539)" fill="none" stroke="#454545" stroke-linecap="round" stroke-linejoin="round" stroke-width="1"/>
      <path id="패스_533" data-name="패스 533" d="M4.777,25.923a1.639,1.639,0,1,1-1.64-1.637A1.639,1.639,0,0,1,4.777,25.923Z" transform="translate(-0.775 -12.548)" fill="none" stroke="#454545" stroke-linecap="round" stroke-linejoin="round" stroke-width="1"/>
      <path id="패스_534" data-name="패스 534" d="M36.212,25.888a1.638,1.638,0,1,1-1.64-1.638A1.639,1.639,0,0,1,36.212,25.888Z" transform="translate(-17.016 -12.529)" fill="none" stroke="#454545" stroke-linecap="round" stroke-linejoin="round" stroke-width="1"/>
      <rect id="사각형_15540" data-name="사각형 15540" width="11.6" height="5.155" rx="2.578" transform="translate(4.16 0.725)" fill="none" stroke="#454545" stroke-linecap="round" stroke-linejoin="round" stroke-width="1"/>
    </g>
  </g>
</svg>
