<svg xmlns="http://www.w3.org/2000/svg" xmlns:xlink="http://www.w3.org/1999/xlink" width="24" height="24" viewBox="0 0 24 24">
  <defs>
    <clipPath id="clip-path">
      <rect id="사각형_15537" data-name="사각형 15537" width="24" height="24" transform="translate(-0.055 0.376)" fill="none" stroke="#707070" stroke-width="1"/>
    </clipPath>
  </defs>
  <g id="nav_management" transform="translate(0.055 -0.376)" clip-path="url(#clip-path)">
    <path id="패스_528" data-name="패스 528" d="M56.092,50.734a4.941,4.941,0,0,0-.148-1.183l1.506-1.1-1.182-2.047-1.7.755a4.947,4.947,0,0,0-2.05-1.185l-.2-1.85H49.955l-.2,1.85a4.941,4.941,0,0,0-2.05,1.185l-1.7-.755-1.182,2.047,1.506,1.1a4.8,4.8,0,0,0,0,2.366l-1.506,1.1,1.182,2.048,1.7-.755a4.947,4.947,0,0,0,2.05,1.185l.2,1.85h2.364l.2-1.85a4.947,4.947,0,0,0,2.05-1.185l1.7.755,1.182-2.048-1.506-1.1A4.941,4.941,0,0,0,56.092,50.734Zm-4.955,2.1a2.1,2.1,0,1,1,2.1-2.1A2.1,2.1,0,0,1,51.137,52.838Z" transform="translate(-38.879 -38.751)" fill="none" stroke="#454545" stroke-linecap="round" stroke-linejoin="round" stroke-width="1"/>
  </g>
</svg>
