<svg xmlns="http://www.w3.org/2000/svg" xmlns:xlink="http://www.w3.org/1999/xlink" width="24" height="24" viewBox="0 0 24 24">
  <defs>
    <clipPath id="clip-path">
      <rect id="사각형_15535" data-name="사각형 15535" width="24" height="24" transform="translate(0.38 0.283)" fill="none"/>
    </clipPath>
  </defs>
  <g id="nav_request" transform="translate(-0.38 -0.283)" clip-path="url(#clip-path)">
    <g id="그룹_801" data-name="그룹 801" transform="translate(6.38 4.283)">
      <path id="패스_521" data-name="패스 521" d="M14.141,11.214A3.3,3.3,0,0,0,12.5,10.1c-.187-.077-.363-.149-.506-.223a1.913,1.913,0,0,1-.951-2.3c.064-.354.34-1.556.474-2.064a2.86,2.86,0,1,0-3.187-.733c-.1.517-.38,1.717-.477,2.061A1.914,1.914,0,0,1,5.989,8.494c-.163,0-.351-.008-.553-.02s-.412-.025-.627-.025a2.567,2.567,0,0,0-1.339.309,2.155,2.155,0,0,0-.844,1.3,6.125,6.125,0,0,0-.171.725,1.923,1.923,0,0,0,1.655,2.323l7.551,1.739a2.907,2.907,0,0,0,.65.079h0a1.85,1.85,0,0,0,1.855-1.443,6.244,6.244,0,0,0,.164-.727,2.153,2.153,0,0,0-.19-1.541m-.9,1.365a5.127,5.127,0,0,1-.134.6.747.747,0,0,1-.791.643,1.8,1.8,0,0,1-.4-.05L4.36,12.029c-.844-.194-.885-.642-.813-1.055a4.97,4.97,0,0,1,.14-.594c.05-.168.169-.561.361-.678a1.482,1.482,0,0,1,.763-.147c.181,0,.373.012.559.023.216.013.445.027.647.022a2.977,2.977,0,0,0,2.9-2.458c.061-.217.2-.81.332-1.379.275-1.221.3-1.348.035-1.593a1.753,1.753,0,1,1,1.635.378c-.345.1-.375.227-.662,1.447-.134.566-.265,1.162-.305,1.386a2.976,2.976,0,0,0,1.533,3.478c.185.1.392.181.592.263a2.572,2.572,0,0,1,1.135.69,1.35,1.35,0,0,1,.028.766" transform="translate(-2.035)" fill="#454545"/>
      <path id="패스_522" data-name="패스 522" d="M11.359,98.35H.554a.554.554,0,0,0,0,1.107H11.359a.554.554,0,0,0,0-1.107" transform="translate(0 -82.792)" fill="#454545"/>
    </g>
  </g>
</svg>
